<?xml version="1.0" encoding="utf-8"?>
<!-- Generator: Adobe Illustrator 27.5.0, SVG Export Plug-In . SVG Version: 6.00 Build 0)  -->
<svg version="1.1" id="Layer_1" xmlns="http://www.w3.org/2000/svg" xmlns:xlink="http://www.w3.org/1999/xlink" x="0px" y="0px"
	 viewBox="-24.343 -91.966 83.736 73.249" style="enable-background:new -24.343 -91.966 83.736 73.249;" xml:space="preserve">
<rect x="-24.343" y="-91.967" style="fill:#FFFFFF;" width="83.736" height="73.249"/>
<g style="opacity:0.74;">
	<g>
		<defs>
			<path id="SVGID_1_" d="M9.555-39.782c-14.34,0.273-25.201,2.491-24.115,4.939c1.037,2.46,13.676,4.219,27.977,3.947
				c14.557-0.279,25.452-2.493,24.318-4.948C36.694-38.299,24.041-40.061,9.555-39.782z"/>
		</defs>
		<clipPath id="SVGID_00000021841115174779691610000009249230790638988970_">
			<use xlink:href="#SVGID_1_"  style="overflow:visible;"/>
		</clipPath>
		
			<rect x="-15.646" y="-40.061" style="clip-path:url(#SVGID_00000021841115174779691610000009249230790638988970_);fill:#FFFFFF;" width="54.515" height="9.437"/>
		<path style="clip-path:url(#SVGID_00000021841115174779691610000009249230790638988970_);fill:#FFFFFF;" d="M-11.761-35.206
			c0.027,1.717,10.123,2.906,22.55,2.657c12.427-0.249,22.479-1.843,22.451-3.56c-0.028-1.717-10.124-2.906-22.551-2.657
			C-1.737-38.516-11.789-36.922-11.761-35.206z"/>
		<path style="clip-path:url(#SVGID_00000021841115174779691610000009249230790638988970_);fill:#FFFFFF;" d="M-11.63-35.207
			c0.027,1.71,10.082,2.895,22.459,2.646c12.376-0.248,22.387-1.835,22.359-3.545c-0.027-1.71-10.083-2.895-22.459-2.647
			C-1.647-38.503-11.658-36.916-11.63-35.207z"/>
		<path style="clip-path:url(#SVGID_00000021841115174779691610000009249230790638988970_);fill:#FFFFFF;" d="M-11.501-35.208
			c0.028,1.703,10.042,2.884,22.368,2.636c12.326-0.247,22.296-1.827,22.269-3.53c-0.027-1.703-10.042-2.884-22.368-2.636
			C-1.558-38.492-11.528-36.912-11.501-35.208z"/>
		<path style="clip-path:url(#SVGID_00000021841115174779691610000009249230790638988970_);fill:#FFFFFF;" d="M-11.37-35.21
			c0.027,1.696,10.001,2.872,22.276,2.626c12.276-0.246,22.205-1.821,22.177-3.517c-0.027-1.696-10-2.872-22.276-2.626
			C-1.468-38.481-11.397-36.906-11.37-35.21z"/>
		<path style="clip-path:url(#SVGID_00000021841115174779691610000009249230790638988970_);fill:#FFFFFF;" d="M-11.24-35.211
			c0.027,1.689,9.96,2.86,22.185,2.615c12.225-0.245,22.114-1.813,22.086-3.502c-0.027-1.689-9.96-2.86-22.185-2.615
			C-1.378-38.468-11.267-36.9-11.24-35.211z"/>
		<path style="clip-path:url(#SVGID_00000021841115174779691610000009249230790638988970_);fill:#FFFFFF;" d="M-11.109-35.212
			c0.027,1.682,9.918,2.848,22.093,2.604c12.175-0.244,22.022-1.806,21.996-3.488c-0.027-1.682-9.919-2.848-22.094-2.604
			C-1.289-38.457-11.136-36.895-11.109-35.212z"/>
		<path style="clip-path:url(#SVGID_00000021841115174779691610000009249230790638988970_);fill:#FFFFFF;" d="M-10.979-35.214
			c0.027,1.675,9.878,2.836,22.002,2.593c12.124-0.243,21.932-1.798,21.904-3.474c-0.026-1.675-9.877-2.836-22.002-2.593
			C-1.199-38.445-11.006-36.89-10.979-35.214z"/>
		<path style="clip-path:url(#SVGID_00000021841115174779691610000009249230790638988970_);fill:#FFFFFF;" d="M-10.849-35.215
			c0.026,1.668,9.836,2.824,21.91,2.582c12.075-0.242,21.84-1.791,21.814-3.459c-0.027-1.668-9.837-2.824-21.911-2.582
			C-1.109-38.432-10.876-36.883-10.849-35.215z"/>
		<path style="clip-path:url(#SVGID_00000021841115174779691610000009249230790638988970_);fill:#FEFEFE;" d="M-10.719-35.217
			c0.027,1.661,9.796,2.813,21.819,2.571c12.024-0.241,21.75-1.783,21.722-3.444c-0.026-1.661-9.795-2.813-21.819-2.571
			C-1.02-38.42-10.745-36.878-10.719-35.217z"/>
		<path style="clip-path:url(#SVGID_00000021841115174779691610000009249230790638988970_);fill:#FEFEFE;" d="M-10.588-35.219
			c0.027,1.654,9.754,2.801,21.728,2.561c11.973-0.24,21.658-1.775,21.631-3.43c-0.026-1.654-9.755-2.801-21.728-2.561
			C-0.93-38.409-10.615-36.874-10.588-35.219z"/>
		<path style="clip-path:url(#SVGID_00000021841115174779691610000009249230790638988970_);fill:#FEFEFE;" d="M-10.458-35.22
			c0.026,1.647,9.713,2.789,21.636,2.55c11.923-0.239,21.567-1.768,21.54-3.415c-0.026-1.647-9.713-2.789-21.636-2.55
			C-0.84-38.396-10.484-36.868-10.458-35.22z"/>
		<path style="clip-path:url(#SVGID_00000021841115174779691610000009249230790638988970_);fill:#FEFEFE;" d="M-10.328-35.222
			c0.026,1.641,9.672,2.777,21.545,2.539c11.872-0.237,21.476-1.761,21.449-3.4c-0.026-1.641-9.672-2.777-21.545-2.539
			C-0.751-38.385-10.354-36.862-10.328-35.222z"/>
		<path style="clip-path:url(#SVGID_00000021841115174779691610000009249230790638988970_);fill:#FEFEFE;" d="M-10.197-35.224
			c0.026,1.634,9.631,2.766,21.453,2.528c11.823-0.236,21.385-1.753,21.359-3.386c-0.026-1.634-9.632-2.766-21.454-2.528
			C-0.661-38.374-10.224-36.857-10.197-35.224z"/>
		<path style="clip-path:url(#SVGID_00000021841115174779691610000009249230790638988970_);fill:#FEFEFE;" d="M-10.067-35.224
			c0.026,1.626,9.59,2.753,21.362,2.518c11.772-0.236,21.293-1.746,21.267-3.373c-0.026-1.626-9.59-2.753-21.362-2.518
			C-0.572-38.361-10.093-36.851-10.067-35.224z"/>
		<path style="clip-path:url(#SVGID_00000021841115174779691610000009249230790638988970_);fill:#FEFEFE;" d="M-9.937-35.226
			c0.026,1.619,9.549,2.741,21.271,2.507c11.721-0.235,21.203-1.738,21.176-3.358c-0.026-1.619-9.55-2.741-21.271-2.507
			C-0.482-38.349-9.963-36.846-9.937-35.226z"/>
		<path style="clip-path:url(#SVGID_00000021841115174779691610000009249230790638988970_);fill:#FDFDFD;" d="M-9.807-35.228
			c0.026,1.612,9.508,2.73,21.179,2.496c11.671-0.234,21.111-1.731,21.085-3.344c-0.025-1.612-9.508-2.729-21.179-2.496
			C-0.392-38.337-9.833-36.84-9.807-35.228z"/>
		<path style="clip-path:url(#SVGID_00000021841115174779691610000009249230790638988970_);fill:#FDFDFD;" d="M-9.676-35.229
			c0.026,1.605,9.467,2.718,21.088,2.485c11.62-0.233,21.02-1.724,20.994-3.329c-0.025-1.606-9.467-2.718-21.088-2.485
			C-0.303-38.325-9.702-36.834-9.676-35.229z"/>
		<path style="clip-path:url(#SVGID_00000021841115174779691610000009249230790638988970_);fill:#FDFDFD;" d="M-9.546-35.231
			c0.025,1.599,9.426,2.706,20.996,2.475c11.571-0.232,20.929-1.716,20.904-3.314c-0.026-1.599-9.427-2.706-20.996-2.475
			C-0.213-38.313-9.572-36.83-9.546-35.231z"/>
		<path style="clip-path:url(#SVGID_00000021841115174779691610000009249230790638988970_);fill:#FDFDFD;" d="M-9.416-35.233
			c0.025,1.592,9.385,2.694,20.905,2.464c11.52-0.231,20.837-1.708,20.812-3.3c-0.025-1.592-9.385-2.694-20.905-2.464
			C-0.124-38.301-9.441-36.825-9.416-35.233z"/>
		<path style="clip-path:url(#SVGID_00000021841115174779691610000009249230790638988970_);fill:#FCFCFC;" d="M-9.286-35.234
			c0.026,1.585,9.344,2.684,20.813,2.453c11.47-0.229,20.747-1.701,20.722-3.285c-0.025-1.585-9.344-2.683-20.813-2.453
			C-0.034-38.29-9.311-36.818-9.286-35.234z"/>
		<path style="clip-path:url(#SVGID_00000021841115174779691610000009249230790638988970_);fill:#FCFCFC;" d="M-9.155-35.236
			c0.025,1.578,9.303,2.672,20.722,2.442c11.419-0.229,20.655-1.693,20.63-3.271c-0.025-1.578-9.303-2.672-20.722-2.442
			C0.056-38.278-9.181-36.813-9.155-35.236z"/>
		<path style="clip-path:url(#SVGID_00000021841115174779691610000009249230790638988970_);fill:#FCFCFC;" d="M-9.025-35.237
			c0.025,1.57,9.262,2.659,20.631,2.431c11.368-0.228,20.564-1.686,20.539-3.257c-0.025-1.57-9.262-2.659-20.631-2.431
			C0.145-38.266-9.05-36.808-9.025-35.237z"/>
		<path style="clip-path:url(#SVGID_00000021841115174779691610000009249230790638988970_);fill:#FCFCFC;" d="M-8.895-35.238
			c0.025,1.563,9.221,2.647,20.539,2.42c11.319-0.227,20.473-1.678,20.449-3.242c-0.025-1.563-9.222-2.647-20.54-2.42
			C0.235-38.253-8.92-36.802-8.895-35.238z"/>
		<path style="clip-path:url(#SVGID_00000021841115174779691610000009249230790638988970_);fill:#FBFBFB;" d="M-8.764-35.24
			c0.025,1.557,9.18,2.636,20.448,2.409c11.268-0.226,20.382-1.671,20.357-3.228c-0.024-1.557-9.18-2.636-20.448-2.409
			C0.325-38.242-8.79-36.796-8.764-35.24z"/>
		<path style="clip-path:url(#SVGID_00000021841115174779691610000009249230790638988970_);fill:#FBFBFB;" d="M-8.634-35.242
			c0.025,1.55,9.139,2.624,20.356,2.399c11.218-0.226,20.291-1.664,20.267-3.214c-0.025-1.55-9.139-2.624-20.356-2.399
			C0.415-38.23-8.659-36.791-8.634-35.242z"/>
		<path style="clip-path:url(#SVGID_00000021841115174779691610000009249230790638988970_);fill:#FBFBFB;" d="M-8.504-35.243
			c0.025,1.543,9.098,2.612,20.265,2.389c11.167-0.225,20.2-1.656,20.175-3.199c-0.024-1.543-9.098-2.612-20.265-2.389
			C0.504-38.217-8.529-36.786-8.504-35.243z"/>
		<path style="clip-path:url(#SVGID_00000021841115174779691610000009249230790638988970_);fill:#FBFBFB;" d="M-8.374-35.245
			c0.025,1.536,9.057,2.601,20.174,2.378c11.116-0.223,20.108-1.648,20.084-3.185c-0.024-1.536-9.057-2.601-20.174-2.378
			C0.594-38.207-8.398-36.781-8.374-35.245z"/>
		<path style="clip-path:url(#SVGID_00000021841115174779691610000009249230790638988970_);fill:#FAFAFA;" d="M-8.243-35.247
			c0.024,1.529,9.016,2.589,20.082,2.367c11.067-0.222,20.018-1.642,19.994-3.17c-0.025-1.529-9.016-2.589-20.083-2.367
			C0.684-38.195-8.268-36.775-8.243-35.247z"/>
		<path style="clip-path:url(#SVGID_00000021841115174779691610000009249230790638988970_);fill:#FAFAFA;" d="M-8.113-35.248
			c0.024,1.522,8.975,2.577,19.991,2.356c11.016-0.221,19.926-1.634,19.902-3.155c-0.024-1.522-8.975-2.577-19.991-2.356
			S-8.137-36.769-8.113-35.248z"/>
		<path style="clip-path:url(#SVGID_00000021841115174779691610000009249230790638988970_);fill:#FAFAFA;" d="M-7.982-35.249
			c0.024,1.515,8.934,2.564,19.899,2.345c10.966-0.22,19.836-1.626,19.812-3.142c-0.025-1.515-8.934-2.564-19.899-2.345
			C0.863-38.17-8.007-36.764-7.982-35.249z"/>
		<path style="clip-path:url(#SVGID_00000021841115174779691610000009249230790638988970_);fill:#F9F9F9;" d="M-7.853-35.25
			c0.024,1.508,8.893,2.553,19.808,2.334c10.915-0.219,19.744-1.618,19.72-3.127c-0.024-1.508-8.892-2.553-19.808-2.334
			C0.952-38.159-7.876-36.759-7.853-35.25z"/>
		<path style="clip-path:url(#SVGID_00000021841115174779691610000009249230790638988970_);fill:#F9F9F9;" d="M-7.722-35.251
			c0.024,1.501,8.851,2.541,19.716,2.323c10.865-0.218,19.654-1.611,19.629-3.112c-0.024-1.501-8.852-2.541-19.716-2.323
			C1.042-38.146-7.746-36.752-7.722-35.251z"/>
		<path style="clip-path:url(#SVGID_00000021841115174779691610000009249230790638988970_);fill:#F8F8F8;" d="M-7.592-35.253
			c0.024,1.494,8.811,2.529,19.625,2.313c10.815-0.217,19.562-1.604,19.538-3.098c-0.023-1.494-8.809-2.529-19.625-2.313
			C1.132-38.134-7.616-36.748-7.592-35.253z"/>
		<path style="clip-path:url(#SVGID_00000021841115174779691610000009249230790638988970_);fill:#F8F8F8;" d="M-7.461-35.255
			c0.024,1.487,8.769,2.518,19.534,2.302c10.764-0.216,19.471-1.596,19.447-3.083c-0.023-1.487-8.77-2.518-19.534-2.302
			C1.221-38.123-7.485-36.743-7.461-35.255z"/>
		<path style="clip-path:url(#SVGID_00000021841115174779691610000009249230790638988970_);fill:#F8F8F8;" d="M-7.331-35.256
			c0.023,1.48,8.728,2.506,19.442,2.291c10.714-0.214,19.38-1.588,19.356-3.068c-0.024-1.48-8.728-2.506-19.442-2.291
			C1.311-38.111-7.355-36.737-7.331-35.256z"/>
		<path style="clip-path:url(#SVGID_00000021841115174779691610000009249230790638988970_);fill:#F7F7F7;" d="M-7.201-35.258
			c0.024,1.474,8.688,2.495,19.351,2.281c10.663-0.214,19.289-1.582,19.265-3.055c-0.023-1.474-8.688-2.495-19.351-2.281
			C1.4-38.099-7.225-36.731-7.201-35.258z"/>
		<path style="clip-path:url(#SVGID_00000021841115174779691610000009249230790638988970_);fill:#F7F7F7;" d="M-7.071-35.26
			c0.024,1.467,8.646,2.483,19.259,2.27c10.613-0.213,19.198-1.574,19.174-3.04c-0.023-1.467-8.646-2.483-19.259-2.271
			C1.49-38.087-7.094-36.726-7.071-35.26z"/>
		<path style="clip-path:url(#SVGID_00000021841115174779691610000009249230790638988970_);fill:#F6F6F6;" d="M-6.94-35.26
			c0.023,1.459,8.606,2.471,19.168,2.259c10.563-0.212,19.106-1.566,19.083-3.026c-0.023-1.459-8.604-2.471-19.167-2.259
			C1.58-38.075-6.964-36.72-6.94-35.26z"/>
		<path style="clip-path:url(#SVGID_00000021841115174779691610000009249230790638988970_);fill:#F6F6F6;" d="M-6.81-35.262
			c0.023,1.452,8.564,2.459,19.077,2.248c10.512-0.211,19.015-1.56,18.992-3.012c-0.023-1.452-8.564-2.459-19.077-2.248
			C1.669-38.063-6.834-36.714-6.81-35.262z"/>
		<path style="clip-path:url(#SVGID_00000021841115174779691610000009249230790638988970_);fill:#F6F6F6;" d="M-6.68-35.264
			c0.023,1.445,8.523,2.447,18.985,2.237s18.924-1.552,18.901-2.997c-0.023-1.445-8.523-2.447-18.985-2.237
			C1.759-38.051-6.703-36.709-6.68-35.264z"/>
		<path style="clip-path:url(#SVGID_00000021841115174779691610000009249230790638988970_);fill:#F5F5F5;" d="M-6.549-35.265
			c0.023,1.438,8.482,2.436,18.894,2.227c10.411-0.209,18.833-1.544,18.809-2.982c-0.022-1.439-8.481-2.436-18.893-2.227
			C1.849-38.039-6.573-36.704-6.549-35.265z"/>
		<path style="clip-path:url(#SVGID_00000021841115174779691610000009249230790638988970_);fill:#F5F5F5;" d="M-6.419-35.267
			c0.023,1.432,8.441,2.424,18.802,2.216c10.362-0.208,18.742-1.536,18.719-2.968c-0.023-1.432-8.441-2.424-18.802-2.216
			C1.938-38.027-6.442-36.699-6.419-35.267z"/>
		<path style="clip-path:url(#SVGID_00000021841115174779691610000009249230790638988970_);fill:#F4F4F4;" d="M-6.289-35.269
			c0.023,1.425,8.4,2.412,18.711,2.205c10.311-0.206,18.651-1.529,18.627-2.953c-0.022-1.425-8.399-2.412-18.71-2.205
			C2.028-38.016-6.312-36.693-6.289-35.269z"/>
		<path style="clip-path:url(#SVGID_00000021841115174779691610000009249230790638988970_);fill:#F4F4F4;" d="M-6.159-35.27
			c0.023,1.418,8.359,2.4,18.619,2.194c10.261-0.205,18.56-1.521,18.537-2.938c-0.022-1.418-8.359-2.4-18.619-2.194
			C2.118-38.003-6.182-36.687-6.159-35.27z"/>
		<path style="clip-path:url(#SVGID_00000021841115174779691610000009249230790638988970_);fill:#F3F3F3;" d="M-6.028-35.271
			c0.023,1.41,8.318,2.388,18.528,2.183c10.21-0.204,18.469-1.514,18.446-2.925c-0.023-1.41-8.318-2.388-18.528-2.183
			C2.208-37.992-6.051-36.682-6.028-35.271z"/>
		<path style="clip-path:url(#SVGID_00000021841115174779691610000009249230790638988970_);fill:#F3F3F3;" d="M-5.898-35.273
			c0.022,1.403,8.277,2.376,18.436,2.173c10.159-0.204,18.377-1.507,18.354-2.911c-0.022-1.403-8.276-2.376-18.437-2.173
			C2.297-37.98-5.921-36.677-5.898-35.273z"/>
		<path style="clip-path:url(#SVGID_00000021841115174779691610000009249230790638988970_);fill:#F2F2F2;" d="M-5.768-35.274
			c0.022,1.396,8.236,2.364,18.345,2.162c10.11-0.203,18.287-1.5,18.264-2.896c-0.022-1.396-8.236-2.364-18.345-2.162
			C2.387-37.967-5.791-36.67-5.768-35.274z"/>
		<path style="clip-path:url(#SVGID_00000021841115174779691610000009249230790638988970_);fill:#F2F2F2;" d="M-5.638-35.276
			c0.023,1.39,8.195,2.353,18.254,2.151c10.059-0.202,18.195-1.492,18.172-2.882c-0.022-1.39-8.194-2.353-18.253-2.151
			C2.477-37.956-5.66-36.666-5.638-35.276z"/>
		<path style="clip-path:url(#SVGID_00000021841115174779691610000009249230790638988970_);fill:#F1F1F1;" d="M-5.507-35.278
			c0.023,1.383,8.154,2.341,18.162,2.141c10.009-0.201,18.104-1.484,18.082-2.867c-0.022-1.383-8.153-2.341-18.162-2.141
			C2.566-37.944-5.529-36.661-5.507-35.278z"/>
		<path style="clip-path:url(#SVGID_00000021841115174779691610000009249230790638988970_);fill:#F1F1F1;" d="M-5.377-35.279
			c0.022,1.376,8.113,2.329,18.071,2.13c9.958-0.2,18.013-1.476,17.991-2.853c-0.022-1.376-8.113-2.329-18.071-2.13
			C2.656-37.931-5.399-36.655-5.377-35.279z"/>
		<path style="clip-path:url(#SVGID_00000021841115174779691610000009249230790638988970_);fill:#F0F0F0;" d="M-5.247-35.281
			c0.022,1.369,8.072,2.317,17.979,2.119c9.907-0.198,17.922-1.47,17.899-2.838c-0.021-1.369-8.071-2.317-17.979-2.119
			C2.745-37.92-5.269-36.649-5.247-35.281z"/>
		<path style="clip-path:url(#SVGID_00000021841115174779691610000009249230790638988970_);fill:#F0F0F0;" d="M-5.116-35.283
			c0.022,1.362,8.03,2.306,17.888,2.108c9.858-0.197,17.831-1.462,17.809-2.823c-0.022-1.362-8.031-2.306-17.888-2.108
			C2.835-37.909-5.138-36.644-5.116-35.283z"/>
		<path style="clip-path:url(#SVGID_00000021841115174779691610000009249230790638988970_);fill:#EFEFEF;" d="M-4.986-35.284
			c0.022,1.354,7.99,2.294,17.797,2.097c9.807-0.196,17.74-1.454,17.717-2.81c-0.021-1.355-7.989-2.294-17.796-2.097
			C2.925-37.897-5.008-36.639-4.986-35.284z"/>
		<path style="clip-path:url(#SVGID_00000021841115174779691610000009249230790638988970_);fill:#EEEEEE;" d="M-4.856-35.285
			c0.022,1.348,7.949,2.282,17.705,2.086c9.757-0.195,17.648-1.446,17.627-2.795c-0.021-1.348-7.948-2.282-17.705-2.086
			C3.014-37.884-4.877-36.633-4.856-35.285z"/>
		<path style="clip-path:url(#SVGID_00000021841115174779691610000009249230790638988970_);fill:#EEEEEE;" d="M-4.726-35.287
			c0.022,1.341,7.908,2.271,17.614,2.075c9.706-0.194,17.558-1.439,17.535-2.78c-0.021-1.341-7.907-2.271-17.613-2.075
			C3.104-37.873-4.747-36.627-4.726-35.287z"/>
		<path style="clip-path:url(#SVGID_00000021841115174779691610000009249230790638988970_);fill:#EDEDED;" d="M-4.596-35.289
			c0.022,1.334,7.866,2.259,17.522,2.064c9.656-0.193,17.466-1.432,17.445-2.766c-0.021-1.334-7.867-2.259-17.523-2.064
			C3.193-37.861-4.617-36.623-4.596-35.289z"/>
		<path style="clip-path:url(#SVGID_00000021841115174779691610000009249230790638988970_);fill:#EDEDED;" d="M-4.465-35.29
			c0.021,1.327,7.825,2.247,17.431,2.055c9.605-0.193,17.375-1.425,17.354-2.752c-0.021-1.327-7.825-2.247-17.431-2.055
			C3.283-37.848-4.487-36.617-4.465-35.29z"/>
		<path style="clip-path:url(#SVGID_00000021841115174779691610000009249230790638988970_);fill:#ECECEC;" d="M-4.335-35.291
			c0.022,1.32,7.785,2.235,17.34,2.044c9.555-0.191,17.283-1.417,17.263-2.737c-0.021-1.32-7.784-2.235-17.34-2.044
			C3.372-37.837-4.356-36.612-4.335-35.291z"/>
		<path style="clip-path:url(#SVGID_00000021841115174779691610000009249230790638988970_);fill:#EBEBEB;" d="M-4.205-35.293
			c0.021,1.313,7.744,2.224,17.248,2.033c9.504-0.19,17.193-1.41,17.171-2.723c-0.021-1.313-7.743-2.224-17.248-2.033
			C3.462-37.826-4.226-36.606-4.205-35.293z"/>
		<path style="clip-path:url(#SVGID_00000021841115174779691610000009249230790638988970_);fill:#EBEBEB;" d="M-4.075-35.294
			c0.021,1.307,7.702,2.212,17.157,2.022c9.455-0.189,17.101-1.402,17.08-2.708c-0.021-1.307-7.702-2.212-17.157-2.023
			C3.552-37.813-4.096-36.6-4.075-35.294z"/>
		<path style="clip-path:url(#SVGID_00000021841115174779691610000009249230790638988970_);fill:#EAEAEA;" d="M-3.944-35.295
			c0.021,1.299,7.661,2.199,17.065,2.011c9.404-0.188,17.011-1.395,16.99-2.694c-0.021-1.299-7.662-2.199-17.065-2.011
			C3.641-37.801-3.965-36.595-3.944-35.295z"/>
		<path style="clip-path:url(#SVGID_00000021841115174779691610000009249230790638988970_);fill:#EAEAEA;" d="M-3.814-35.297
			c0.021,1.292,7.62,2.188,16.974,2s16.919-1.387,16.898-2.68c-0.021-1.292-7.62-2.187-16.974-2
			C3.731-37.79-3.835-36.59-3.814-35.297z"/>
		<path style="clip-path:url(#SVGID_00000021841115174779691610000009249230790638988970_);fill:#E9E9E9;" d="M-3.684-35.298
			c0.02,1.285,7.579,2.176,16.882,1.989c9.303-0.186,16.828-1.38,16.808-2.665c-0.021-1.285-7.579-2.176-16.883-1.989
			C3.82-37.777-3.705-36.583-3.684-35.298z"/>
		<path style="clip-path:url(#SVGID_00000021841115174779691610000009249230790638988970_);fill:#E8E8E8;" d="M-3.554-35.3
			c0.021,1.278,7.538,2.164,16.791,1.979c9.253-0.186,16.737-1.372,16.716-2.65c-0.021-1.278-7.538-2.164-16.791-1.979
			C3.91-37.765-3.574-36.579-3.554-35.3z"/>
		<path style="clip-path:url(#SVGID_00000021841115174779691610000009249230790638988970_);fill:#E8E8E8;" d="M-3.423-35.302
			c0.02,1.272,7.497,2.152,16.7,1.968c9.203-0.185,16.646-1.364,16.625-2.636c-0.021-1.272-7.497-2.152-16.7-1.968
			C4-37.753-3.444-36.574-3.423-35.302z"/>
		<path style="clip-path:url(#SVGID_00000021841115174779691610000009249230790638988970_);fill:#E7E7E7;" d="M-3.293-35.303
			c0.02,1.265,7.456,2.141,16.608,1.957c9.152-0.183,16.555-1.356,16.534-2.621c-0.02-1.265-7.455-2.141-16.608-1.957
			C4.089-37.742-3.313-36.568-3.293-35.303z"/>
		<path style="clip-path:url(#SVGID_00000021841115174779691610000009249230790638988970_);fill:#E6E6E6;" d="M-3.163-35.305
			c0.02,1.258,7.415,2.129,16.517,1.947c9.102-0.183,16.464-1.351,16.443-2.607c-0.021-1.258-7.415-2.129-16.517-1.947
			C4.179-37.73-3.183-36.562-3.163-35.305z"/>
		<path style="clip-path:url(#SVGID_00000021841115174779691610000009249230790638988970_);fill:#E6E6E6;" d="M-3.032-35.307
			c0.02,1.251,7.373,2.117,16.425,1.937c9.051-0.182,16.372-1.343,16.353-2.593c-0.021-1.251-7.374-2.117-16.426-1.937
			C4.269-37.718-3.053-36.557-3.032-35.307z"/>
		<path style="clip-path:url(#SVGID_00000021841115174779691610000009249230790638988970_);fill:#E5E5E5;" d="M-2.902-35.307
			c0.02,1.243,7.333,2.104,16.334,1.925c9.001-0.181,16.282-1.335,16.261-2.579c-0.02-1.243-7.333-2.104-16.333-1.925
			C4.358-37.706-2.922-36.551-2.902-35.307z"/>
		<path style="clip-path:url(#SVGID_00000021841115174779691610000009249230790638988970_);fill:#E4E4E4;" d="M-2.772-35.309
			c0.02,1.236,7.292,2.094,16.243,1.914c8.951-0.18,16.19-1.327,16.17-2.564c-0.02-1.236-7.292-2.094-16.243-1.914
			C4.448-37.694-2.792-36.546-2.772-35.309z"/>
		<path style="clip-path:url(#SVGID_00000021841115174779691610000009249230790638988970_);fill:#E3E3E3;" d="M-2.642-35.311
			c0.02,1.23,7.251,2.082,16.151,1.903c8.9-0.179,16.1-1.32,16.079-2.55c-0.02-1.229-7.25-2.082-16.15-1.903
			S-2.661-36.541-2.642-35.311z"/>
		<path style="clip-path:url(#SVGID_00000021841115174779691610000009249230790638988970_);fill:#E3E3E3;" d="M-2.511-35.312
			c0.02,1.223,7.21,2.07,16.06,1.892c8.85-0.178,16.008-1.313,15.988-2.535c-0.02-1.223-7.21-2.07-16.06-1.893
			S-2.531-36.535-2.511-35.312z"/>
		<path style="clip-path:url(#SVGID_00000021841115174779691610000009249230790638988970_);fill:#E2E2E2;" d="M-2.381-35.314
			c0.02,1.216,7.168,2.059,15.968,1.882c8.799-0.177,15.917-1.305,15.898-2.521c-0.02-1.216-7.169-2.059-15.968-1.882
			C4.717-37.658-2.4-36.53-2.381-35.314z"/>
		<path style="clip-path:url(#SVGID_00000021841115174779691610000009249230790638988970_);fill:#E1E1E1;" d="M-2.251-35.316
			c0.019,1.209,7.127,2.047,15.876,1.871c8.75-0.175,15.826-1.297,15.806-2.506c-0.02-1.209-7.128-2.047-15.877-1.871
			C4.807-37.647-2.27-36.525-2.251-35.316z"/>
		<path style="clip-path:url(#SVGID_00000021841115174779691610000009249230790638988970_);fill:#E0E0E0;" d="M-2.121-35.317
			c0.02,1.202,7.087,2.035,15.786,1.86c8.699-0.174,15.735-1.29,15.715-2.491c-0.02-1.202-7.087-2.035-15.786-1.86
			C4.896-37.634-2.14-36.518-2.121-35.317z"/>
		<path style="clip-path:url(#SVGID_00000021841115174779691610000009249230790638988970_);fill:#E0E0E0;" d="M-1.99-35.319
			c0.02,1.195,7.046,2.023,15.694,1.85c8.648-0.173,15.644-1.282,15.624-2.476c-0.019-1.195-7.045-2.024-15.693-1.85
			C4.986-37.623-2.009-36.513-1.99-35.319z"/>
		<path style="clip-path:url(#SVGID_00000021841115174779691610000009249230790638988970_);fill:#DFDFDF;" d="M-1.86-35.32
			c0.019,1.188,7.004,2.011,15.602,1.838c8.598-0.172,15.553-1.274,15.533-2.463c-0.02-1.188-7.005-2.011-15.603-1.838
			C5.076-37.611-1.879-36.508-1.86-35.32z"/>
		<path style="clip-path:url(#SVGID_00000021841115174779691610000009249230790638988970_);fill:#DEDEDE;" d="M-1.73-35.321
			c0.019,1.181,6.963,1.999,15.511,1.828c8.547-0.172,15.461-1.268,15.443-2.449c-0.02-1.181-6.964-1.999-15.511-1.828
			C5.165-37.598-1.749-36.502-1.73-35.321z"/>
		<path style="clip-path:url(#SVGID_00000021841115174779691610000009249230790638988970_);fill:#DDDDDD;" d="M-1.599-35.323
			c0.019,1.174,6.922,1.987,15.419,1.817c8.498-0.171,15.371-1.261,15.351-2.435c-0.018-1.174-6.922-1.987-15.419-1.817
			C5.255-37.586-1.618-36.497-1.599-35.323z"/>
		<path style="clip-path:url(#SVGID_00000021841115174779691610000009249230790638988970_);fill:#DDDDDD;" d="M-1.469-35.325
			c0.019,1.167,6.882,1.976,15.329,1.807c8.447-0.17,15.279-1.253,15.26-2.42c-0.019-1.167-6.882-1.976-15.329-1.807
			C5.344-37.575-1.488-36.492-1.469-35.325z"/>
		<path style="clip-path:url(#SVGID_00000021841115174779691610000009249230790638988970_);fill:#DCDCDC;" d="M-1.339-35.326
			c0.018,1.16,6.84,1.964,15.237,1.796c8.397-0.169,15.188-1.245,15.169-2.405c-0.018-1.16-6.84-1.964-15.236-1.796
			C5.434-37.562-1.357-36.486-1.339-35.326z"/>
		<path style="clip-path:url(#SVGID_00000021841115174779691610000009249230790638988970_);fill:#DBDBDB;" d="M-1.209-35.328
			c0.019,1.153,6.799,1.952,15.145,1.785c8.346-0.167,15.097-1.237,15.078-2.391c-0.019-1.153-6.8-1.952-15.146-1.785
			S-1.227-36.481-1.209-35.328z"/>
		<path style="clip-path:url(#SVGID_00000021841115174779691610000009249230790638988970_);fill:#DADADA;" d="M-1.078-35.33
			c0.019,1.146,6.758,1.94,15.054,1.774s15.005-1.23,14.988-2.376c-0.019-1.146-6.759-1.94-15.054-1.774
			C5.613-37.54-1.097-36.475-1.078-35.33z"/>
		<path style="clip-path:url(#SVGID_00000021841115174779691610000009249230790638988970_);fill:#D9D9D9;" d="M-0.948-35.331
			c0.018,1.14,6.717,1.929,14.962,1.764c8.246-0.165,14.915-1.223,14.896-2.361c-0.019-1.14-6.717-1.929-14.962-1.764
			C5.703-37.527-0.966-36.469-0.948-35.331z"/>
		<path style="clip-path:url(#SVGID_00000021841115174779691610000009249230790638988970_);fill:#D8D8D8;" d="M-0.817-35.332
			c0.018,1.132,6.676,1.916,14.871,1.752c8.195-0.164,14.823-1.215,14.806-2.348c-0.018-1.132-6.677-1.916-14.871-1.752
			C5.792-37.515-0.836-36.464-0.817-35.332z"/>
		<path style="clip-path:url(#SVGID_00000021841115174779691610000009249230790638988970_);fill:#D8D8D8;" d="M-0.688-35.333
			c0.018,1.125,6.635,1.905,14.78,1.741c8.145-0.163,14.732-1.207,14.714-2.333c-0.018-1.125-6.635-1.905-14.779-1.741
			C5.882-37.503-0.706-36.459-0.688-35.333z"/>
		<path style="clip-path:url(#SVGID_00000021841115174779691610000009249230790638988970_);fill:#D7D7D7;" d="M-0.557-35.334
			c0.018,1.118,6.594,1.894,14.688,1.731c8.094-0.162,14.641-1.2,14.623-2.318c-0.017-1.118-6.594-1.894-14.688-1.73
			C5.972-37.491-0.575-36.453-0.557-35.334z"/>
		<path style="clip-path:url(#SVGID_00000021841115174779691610000009249230790638988970_);fill:#D6D6D6;" d="M-0.427-35.336
			c0.018,1.111,6.553,1.882,14.597,1.721c8.043-0.162,14.55-1.193,14.532-2.305c-0.018-1.111-6.553-1.882-14.596-1.721
			C6.062-37.479-0.445-36.448-0.427-35.336z"/>
		<path style="clip-path:url(#SVGID_00000021841115174779691610000009249230790638988970_);fill:#D5D5D5;" d="M-0.296-35.338
			c0.018,1.104,6.512,1.87,14.505,1.71c7.994-0.16,14.459-1.186,14.441-2.29c-0.017-1.104-6.512-1.87-14.505-1.71
			C6.151-37.468-0.314-36.443-0.296-35.338z"/>
		<path style="clip-path:url(#SVGID_00000021841115174779691610000009249230790638988970_);fill:#D4D4D4;" d="M-0.166-35.339
			c0.018,1.098,6.471,1.858,14.414,1.699c7.943-0.159,14.368-1.179,14.351-2.275c-0.018-1.098-6.472-1.858-14.414-1.699
			C6.241-37.456-0.184-36.436-0.166-35.339z"/>
		<path style="clip-path:url(#SVGID_00000021841115174779691610000009249230790638988970_);fill:#D3D3D3;" d="M-0.036-35.341
			c0.018,1.091,6.43,1.847,14.323,1.688c7.892-0.158,14.276-1.171,14.259-2.261c-0.017-1.091-6.43-1.847-14.322-1.689
			C6.331-37.444-0.053-36.431-0.036-35.341z"/>
		<path style="clip-path:url(#SVGID_00000021841115174779691610000009249230790638988970_);fill:#D2D2D2;" d="M0.094-35.342
			c0.018,1.083,6.389,1.834,14.231,1.677c7.842-0.157,14.186-1.163,14.168-2.247c-0.018-1.083-6.389-1.834-14.231-1.677
			C6.42-37.432,0.077-36.426,0.094-35.342z"/>
		<path style="clip-path:url(#SVGID_00000021841115174779691610000009249230790638988970_);fill:#D1D1D1;" d="M0.225-35.343
			c0.018,1.076,6.348,1.822,14.14,1.666c7.792-0.156,14.094-1.155,14.077-2.232c-0.017-1.076-6.348-1.822-14.139-1.666
			C6.51-37.419,0.208-36.42,0.225-35.343z"/>
		<path style="clip-path:url(#SVGID_00000021841115174779691610000009249230790638988970_);fill:#D1D1D1;" d="M0.355-35.345
			c0.017,1.069,6.307,1.81,14.048,1.655c7.742-0.155,14.003-1.148,13.986-2.218c-0.018-1.069-6.307-1.811-14.048-1.655
			C6.6-37.408,0.338-36.415,0.355-35.345z"/>
		<path style="clip-path:url(#SVGID_00000021841115174779691610000009249230790638988970_);fill:#D0D0D0;" d="M0.485-35.347
			c0.017,1.063,6.266,1.799,13.956,1.645c7.691-0.154,13.912-1.141,13.895-2.203c-0.017-1.063-6.267-1.799-13.957-1.645
			C6.689-37.396,0.468-36.41,0.485-35.347z"/>
		<path style="clip-path:url(#SVGID_00000021841115174779691610000009249230790638988970_);fill:#CFCFCF;" d="M0.616-35.348
			c0.017,1.056,6.225,1.787,13.865,1.634c7.641-0.153,13.821-1.133,13.804-2.188c-0.017-1.056-6.225-1.787-13.865-1.634
			C6.779-37.383,0.599-36.404,0.616-35.348z"/>
		<path style="clip-path:url(#SVGID_00000021841115174779691610000009249230790638988970_);fill:#CECECE;" d="M0.746-35.35
			c0.017,1.049,6.184,1.775,13.774,1.623c7.59-0.151,13.729-1.125,13.713-2.174c-0.017-1.049-6.184-1.775-13.774-1.623
			C6.869-37.373,0.729-36.399,0.746-35.35z"/>
		<path style="clip-path:url(#SVGID_00000021841115174779691610000009249230790638988970_);fill:#CDCDCD;" d="M0.876-35.352
			c0.017,1.042,6.143,1.764,13.683,1.612c7.54-0.15,13.639-1.118,13.622-2.159c-0.017-1.042-6.143-1.764-13.682-1.612
			C6.958-37.361,0.859-36.393,0.876-35.352z"/>
		<path style="clip-path:url(#SVGID_00000021841115174779691610000009249230790638988970_);fill:#CCCCCC;" d="M1.006-35.353
			c0.017,1.035,6.102,1.752,13.591,1.603c7.49-0.15,13.547-1.111,13.531-2.146c-0.017-1.035-6.102-1.752-13.591-1.603
			C7.048-37.348,0.99-36.387,1.006-35.353z"/>
		<path style="clip-path:url(#SVGID_00000021841115174779691610000009249230790638988970_);fill:#CBCBCB;" d="M1.137-35.354
			c0.017,1.027,6.06,1.739,13.499,1.591c7.439-0.149,13.457-1.104,13.44-2.132c-0.017-1.027-6.061-1.739-13.5-1.591
			C7.137-37.336,1.12-36.382,1.137-35.354z"/>
		<path style="clip-path:url(#SVGID_00000021841115174779691610000009249230790638988970_);fill:#CACACA;" d="M1.267-35.356
			c0.016,1.021,6.02,1.728,13.408,1.58c7.389-0.148,13.365-1.096,13.349-2.117c-0.017-1.02-6.02-1.727-13.408-1.58
			C7.227-37.325,1.25-36.377,1.267-35.356z"/>
		<path style="clip-path:url(#SVGID_00000021841115174779691610000009249230790638988970_);fill:#C9C9C9;" d="M1.397-35.357
			c0.017,1.014,5.979,1.716,13.317,1.569c7.338-0.148,13.274-1.089,13.258-2.103c-0.017-1.014-5.978-1.716-13.317-1.569
			C7.316-37.312,1.381-36.371,1.397-35.357z"/>
		<path style="clip-path:url(#SVGID_00000021841115174779691610000009249230790638988970_);fill:#C8C8C8;" d="M1.527-35.359
			c0.016,1.007,5.938,1.705,13.226,1.559c7.288-0.146,13.183-1.081,13.167-2.088c-0.016-1.007-5.938-1.705-13.225-1.559
			C7.406-37.3,1.511-36.366,1.527-35.359z"/>
		<path style="clip-path:url(#SVGID_00000021841115174779691610000009249230790638988970_);fill:#C7C7C7;" d="M1.658-35.361
			c0.016,1,5.896,1.693,13.134,1.548c7.238-0.146,13.091-1.073,13.076-2.073c-0.017-1-5.896-1.693-13.134-1.548
			C7.496-37.289,1.642-36.361,1.658-35.361z"/>
		<path style="clip-path:url(#SVGID_00000021841115174779691610000009249230790638988970_);fill:#C6C6C6;" d="M1.788-35.362
			c0.016,0.993,5.855,1.682,13.042,1.537c7.187-0.144,13.001-1.065,12.985-2.059c-0.017-0.993-5.855-1.682-13.043-1.537
			C7.585-37.277,1.772-36.355,1.788-35.362z"/>
		<path style="clip-path:url(#SVGID_00000021841115174779691610000009249230790638988970_);fill:#C5C5C5;" d="M1.918-35.364
			c0.016,0.986,5.814,1.67,12.951,1.526c7.137-0.143,12.909-1.059,12.893-2.044c-0.016-0.986-5.814-1.67-12.951-1.526
			C7.675-37.265,1.902-36.349,1.918-35.364z"/>
		<path style="clip-path:url(#SVGID_00000021841115174779691610000009249230790638988970_);fill:#C4C4C4;" d="M2.049-35.366
			c0.016,0.979,5.773,1.658,12.859,1.516c7.087-0.142,12.819-1.051,12.803-2.029c-0.016-0.979-5.774-1.658-12.86-1.516
			C7.765-37.253,2.033-36.344,2.049-35.366z"/>
		<path style="clip-path:url(#SVGID_00000021841115174779691610000009249230790638988970_);fill:#C3C3C3;" d="M2.179-35.366
			c0.016,0.972,5.733,1.646,12.769,1.504c7.036-0.141,12.727-1.043,12.711-2.016c-0.016-0.972-5.731-1.646-12.768-1.504
			C7.854-37.241,2.163-36.338,2.179-35.366z"/>
		<path style="clip-path:url(#SVGID_00000021841115174779691610000009249230790638988970_);fill:#C2C2C2;" d="M2.309-35.368
			C2.325-34.403,8-33.734,14.986-33.874c6.986-0.141,12.636-1.036,12.621-2.002c-0.016-0.965-5.691-1.634-12.677-1.494
			C7.944-37.229,2.293-36.333,2.309-35.368z"/>
		<path style="clip-path:url(#SVGID_00000021841115174779691610000009249230790638988970_);fill:#C1C1C1;" d="M2.439-35.37
			c0.016,0.958,5.65,1.622,12.585,1.483c6.936-0.14,12.545-1.029,12.529-1.987c-0.015-0.958-5.649-1.622-12.585-1.483
			C8.034-37.217,2.424-36.328,2.439-35.37z"/>
		<path style="clip-path:url(#SVGID_00000021841115174779691610000009249230790638988970_);fill:#C0C0C0;" d="M2.57-35.371
			c0.015,0.951,5.609,1.61,12.494,1.473c6.885-0.139,12.454-1.021,12.439-1.973c-0.016-0.951-5.609-1.61-12.494-1.473
			C8.124-37.205,2.555-36.322,2.57-35.371z"/>
		<path style="clip-path:url(#SVGID_00000021841115174779691610000009249230790638988970_);fill:#BFBFBF;" d="M2.7-35.373
			c0.015,0.944,5.568,1.599,12.402,1.462c6.834-0.138,12.363-1.014,12.348-1.958c-0.016-0.944-5.568-1.599-12.403-1.462
			C8.213-37.193,2.685-36.317,2.7-35.373z"/>
		<path style="clip-path:url(#SVGID_00000021841115174779691610000009249230790638988970_);fill:#BEBEBE;" d="M2.83-35.374
			c0.015,0.938,5.527,1.587,12.311,1.451c6.784-0.136,12.272-1.006,12.256-1.943c-0.015-0.938-5.526-1.587-12.311-1.451
			C8.303-37.182,2.815-36.312,2.83-35.374z"/>
		<path style="clip-path:url(#SVGID_00000021841115174779691610000009249230790638988970_);fill:#BDBDBD;" d="M2.96-35.375
			c0.015,0.931,5.486,1.575,12.22,1.44c6.734-0.135,12.181-0.999,12.166-1.929c-0.015-0.931-5.486-1.575-12.22-1.44
			C8.393-37.169,2.946-36.305,2.96-35.375z"/>
		<path style="clip-path:url(#SVGID_00000021841115174779691610000009249230790638988970_);fill:#BCBCBC;" d="M3.091-35.377
			c0.015,0.924,5.445,1.563,12.128,1.43c6.684-0.134,12.09-0.991,12.074-1.914c-0.015-0.924-5.444-1.563-12.128-1.43
			S3.076-36.3,3.091-35.377z"/>
		<path style="clip-path:url(#SVGID_00000021841115174779691610000009249230790638988970_);fill:#BABABA;" d="M3.221-35.378
			c0.015,0.916,5.404,1.551,12.037,1.418c6.633-0.133,11.998-0.983,11.983-1.9c-0.015-0.916-5.404-1.551-12.037-1.418
			C8.572-37.146,3.207-36.295,3.221-35.378z"/>
		<path style="clip-path:url(#SVGID_00000021841115174779691610000009249230790638988970_);fill:#B9B9B9;" d="M3.352-35.379
			c0.015,0.909,5.363,1.539,11.945,1.407c6.582-0.132,11.908-0.976,11.893-1.886c-0.015-0.909-5.363-1.539-11.946-1.407
			C8.661-37.133,3.337-36.29,3.352-35.379z"/>
		<path style="clip-path:url(#SVGID_00000021841115174779691610000009249230790638988970_);fill:#B8B8B8;" d="M3.482-35.381
			c0.014,0.902,5.322,1.527,11.854,1.396c6.533-0.131,11.816-0.969,11.801-1.871c-0.015-0.902-5.321-1.527-11.854-1.396
			C8.751-37.122,3.467-36.284,3.482-35.381z"/>
		<path style="clip-path:url(#SVGID_00000021841115174779691610000009249230790638988970_);fill:#B7B7B7;" d="M3.612-35.383
			c0.015,0.896,5.281,1.517,11.763,1.386c6.482-0.13,11.726-0.961,11.711-1.856c-0.015-0.896-5.281-1.517-11.763-1.386
			C8.841-37.11,3.598-36.279,3.612-35.383z"/>
		<path style="clip-path:url(#SVGID_00000021841115174779691610000009249230790638988970_);fill:#B6B6B6;" d="M3.742-35.384
			c0.014,0.889,5.24,1.505,11.671,1.376c6.432-0.129,11.634-0.954,11.619-1.843c-0.014-0.889-5.239-1.505-11.671-1.376
			C8.93-37.098,3.728-36.273,3.742-35.384z"/>
		<path style="clip-path:url(#SVGID_00000021841115174779691610000009249230790638988970_);fill:#B5B5B5;" d="M3.873-35.386
			c0.014,0.882,5.199,1.493,11.58,1.365c6.381-0.128,11.543-0.946,11.528-1.828c-0.015-0.882-5.198-1.493-11.58-1.365
			C9.02-37.086,3.858-36.268,3.873-35.386z"/>
		<path style="clip-path:url(#SVGID_00000021841115174779691610000009249230790638988970_);fill:#B4B4B4;" d="M4.003-35.388
			c0.014,0.875,5.158,1.481,11.488,1.354c6.331-0.127,11.452-0.939,11.438-1.813c-0.015-0.875-5.158-1.481-11.489-1.354
			C9.109-37.075,3.989-36.262,4.003-35.388z"/>
		<path style="clip-path:url(#SVGID_00000021841115174779691610000009249230790638988970_);fill:#B3B3B3;" d="M4.133-35.389
			c0.014,0.868,5.116,1.47,11.397,1.344c6.281-0.126,11.36-0.932,11.346-1.799c-0.014-0.868-5.116-1.47-11.397-1.344
			C9.199-37.062,4.119-36.256,4.133-35.389z"/>
		<path style="clip-path:url(#SVGID_00000021841115174779691610000009249230790638988970_);fill:#B1B1B1;" d="M4.263-35.39
			c0.014,0.86,5.076,1.457,11.306,1.332c6.23-0.125,11.27-0.924,11.256-1.785c-0.014-0.86-5.076-1.457-11.306-1.332
			C9.289-37.05,4.249-36.251,4.263-35.39z"/>
		<path style="clip-path:url(#SVGID_00000021841115174779691610000009249230790638988970_);fill:#B0B0B0;" d="M4.394-35.392
			c0.014,0.854,5.035,1.445,11.214,1.321c6.18-0.124,11.178-0.916,11.164-1.771c-0.014-0.854-5.034-1.445-11.214-1.321
			C9.378-37.039,4.38-36.247,4.394-35.392z"/>
		<path style="clip-path:url(#SVGID_00000021841115174779691610000009249230790638988970_);fill:#AFAFAF;" d="M4.524-35.393
			c0.014,0.847,4.994,1.434,11.123,1.311c6.129-0.123,11.087-0.909,11.074-1.756c-0.014-0.847-4.993-1.434-11.123-1.311
			C9.468-37.026,4.51-36.24,4.524-35.393z"/>
		<path style="clip-path:url(#SVGID_00000021841115174779691610000009249230790638988970_);fill:#AEAEAE;" d="M4.654-35.395
			c0.014,0.84,4.952,1.422,11.031,1.3c6.079-0.122,10.996-0.901,10.983-1.741c-0.014-0.84-4.953-1.422-11.032-1.3
			C9.558-37.014,4.641-36.235,4.654-35.395z"/>
		<path style="clip-path:url(#SVGID_00000021841115174779691610000009249230790638988970_);fill:#ADADAD;" d="M4.785-35.397
			c0.013,0.833,4.911,1.41,10.94,1.289c6.029-0.12,10.905-0.894,10.891-1.727c-0.014-0.833-4.911-1.41-10.94-1.289
			C9.647-37.003,4.771-36.23,4.785-35.397z"/>
		<path style="clip-path:url(#SVGID_00000021841115174779691610000009249230790638988970_);fill:#ACACAC;" d="M4.915-35.398
			c0.013,0.826,4.87,1.399,10.848,1.278c5.978-0.119,10.813-0.886,10.801-1.712c-0.014-0.826-4.87-1.398-10.849-1.278
			C9.737-36.991,4.901-36.224,4.915-35.398z"/>
		<path style="clip-path:url(#SVGID_00000021841115174779691610000009249230790638988970_);fill:#AAAAAA;" d="M5.045-35.4
			c0.013,0.819,4.83,1.387,10.757,1.268c5.928-0.118,10.723-0.879,10.709-1.697c-0.013-0.819-4.829-1.387-10.757-1.268
			C9.827-36.979,5.032-36.218,5.045-35.4z"/>
		<path style="clip-path:url(#SVGID_00000021841115174779691610000009249230790638988970_);fill:#A9A9A9;" d="M5.175-35.402
			c0.013,0.813,4.788,1.375,10.666,1.258c5.877-0.118,10.631-0.872,10.619-1.684c-0.013-0.813-4.788-1.375-10.666-1.258
			C9.916-36.967,5.162-36.213,5.175-35.402z"/>
		<path style="clip-path:url(#SVGID_00000021841115174779691610000009249230790638988970_);fill:#A8A8A8;" d="M5.306-35.402
			c0.013,0.805,4.747,1.362,10.574,1.246c5.827-0.117,10.54-0.864,10.527-1.67c-0.013-0.805-4.747-1.362-10.574-1.246
			C10.006-36.955,5.293-36.208,5.306-35.402z"/>
		<path style="clip-path:url(#SVGID_00000021841115174779691610000009249230790638988970_);fill:#A7A7A7;" d="M5.436-35.404
			c0.013,0.798,4.706,1.35,10.483,1.235c5.777-0.116,10.449-0.856,10.436-1.655c-0.013-0.798-4.706-1.351-10.483-1.235
			C10.096-36.943,5.423-36.203,5.436-35.404z"/>
		<path style="clip-path:url(#SVGID_00000021841115174779691610000009249230790638988970_);fill:#A5A5A5;" d="M5.566-35.406
			c0.013,0.791,4.665,1.339,10.391,1.225c5.726-0.115,10.358-0.85,10.346-1.641c-0.013-0.791-4.665-1.339-10.392-1.225
			C10.185-36.931,5.554-36.197,5.566-35.406z"/>
		<path style="clip-path:url(#SVGID_00000021841115174779691610000009249230790638988970_);fill:#A4A4A4;" d="M5.696-35.407
			c0.013,0.784,4.625,1.327,10.3,1.214c5.676-0.114,10.267-0.842,10.254-1.626c-0.013-0.784-4.624-1.327-10.3-1.214
			C10.275-36.918,5.684-36.191,5.696-35.407z"/>
		<path style="clip-path:url(#SVGID_00000021841115174779691610000009249230790638988970_);fill:#A3A3A3;" d="M5.827-35.409
			c0.013,0.777,4.583,1.316,10.208,1.203c5.625-0.112,10.176-0.834,10.164-1.611c-0.013-0.777-4.583-1.316-10.208-1.203
			C10.365-36.908,5.814-36.186,5.827-35.409z"/>
		<path style="clip-path:url(#SVGID_00000021841115174779691610000009249230790638988970_);fill:#A2A2A2;" d="M5.957-35.411
			c0.012,0.771,4.542,1.305,10.117,1.192c5.575-0.111,10.084-0.826,10.072-1.597c-0.012-0.771-4.542-1.305-10.117-1.192
			C10.454-36.896,5.945-36.181,5.957-35.411z"/>
		<path style="clip-path:url(#SVGID_00000021841115174779691610000009249230790638988970_);fill:#A0A0A0;" d="M6.087-35.412
			c0.012,0.764,4.501,1.293,10.025,1.182c5.525-0.11,9.994-0.819,9.982-1.582c-0.013-0.764-4.501-1.293-10.025-1.182
			C10.544-36.883,6.075-36.174,6.087-35.412z"/>
		<path style="clip-path:url(#SVGID_00000021841115174779691610000009249230790638988970_);fill:#9F9F9F;" d="M6.218-35.414
			c0.012,0.757,4.46,1.281,9.934,1.171c5.475-0.109,9.902-0.812,9.891-1.567c-0.013-0.757-4.46-1.281-9.935-1.171
			C10.633-36.872,6.206-36.169,6.218-35.414z"/>
		<path style="clip-path:url(#SVGID_00000021841115174779691610000009249230790638988970_);fill:#9E9E9E;" d="M6.348-35.415
			c0.012,0.749,4.418,1.269,9.843,1.159c5.424-0.108,9.812-0.804,9.799-1.554c-0.012-0.749-4.419-1.269-9.843-1.159
			C10.723-36.86,6.336-36.165,6.348-35.415z"/>
		<path style="clip-path:url(#SVGID_00000021841115174779691610000009249230790638988970_);fill:#9D9D9D;" d="M6.478-35.416
			c0.012,0.742,4.378,1.257,9.751,1.149c5.374-0.108,9.72-0.798,9.708-1.54s-4.378-1.257-9.751-1.149
			C10.813-36.847,6.466-36.158,6.478-35.416z"/>
		<path style="clip-path:url(#SVGID_00000021841115174779691610000009249230790638988970_);fill:#9B9B9B;" d="M6.608-35.417
			c0.012,0.735,4.337,1.245,9.66,1.139c5.323-0.108,9.629-0.79,9.617-1.525c-0.012-0.735-4.336-1.245-9.66-1.139
			C10.902-36.835,6.597-36.153,6.608-35.417z"/>
		<path style="clip-path:url(#SVGID_00000021841115174779691610000009249230790638988970_);fill:#9A9A9A;" d="M6.739-35.419
			c0.012,0.729,4.296,1.233,9.568,1.128c5.273-0.107,9.538-0.782,9.526-1.511c-0.012-0.728-4.296-1.233-9.568-1.128
			C10.992-36.824,6.727-36.148,6.739-35.419z"/>
		<path style="clip-path:url(#SVGID_00000021841115174779691610000009249230790638988970_);fill:#999999;" d="M6.869-35.42
			c0.012,0.722,4.254,1.222,9.477,1.117c5.223-0.104,9.446-0.774,9.436-1.496c-0.012-0.722-4.255-1.222-9.478-1.117
			C11.082-36.812,6.857-36.142,6.869-35.42z"/>
		<path style="clip-path:url(#SVGID_00000021841115174779691610000009249230790638988970_);fill:#979797;" d="M6.999-35.422
			c0.011,0.715,4.213,1.21,9.386,1.106c5.172-0.104,9.355-0.767,9.344-1.481c-0.012-0.715-4.214-1.21-9.386-1.106
			C11.171-36.8,6.988-36.136,6.999-35.422z"/>
		<path style="clip-path:url(#SVGID_00000021841115174779691610000009249230790638988970_);fill:#969696;" d="M7.129-35.424
			c0.012,0.708,4.173,1.198,9.294,1.096c5.122-0.103,9.264-0.76,9.253-1.467c-0.012-0.708-4.173-1.198-9.295-1.096
			C11.261-36.789,7.118-36.131,7.129-35.424z"/>
		<path style="clip-path:url(#SVGID_00000021841115174779691610000009249230790638988970_);fill:#959595;" d="M7.26-35.424
			c0.011,0.7,4.132,1.186,9.203,1.084c5.071-0.102,9.173-0.752,9.162-1.453c-0.011-0.7-4.131-1.185-9.203-1.084
			C11.351-36.776,7.249-36.125,7.26-35.424z"/>
		<path style="clip-path:url(#SVGID_00000021841115174779691610000009249230790638988970_);fill:#939393;" d="M7.39-35.426
			c0.011,0.693,4.09,1.174,9.111,1.073c5.021-0.1,9.082-0.744,9.071-1.438c-0.011-0.693-4.091-1.174-9.111-1.073
			C11.44-36.764,7.379-36.121,7.39-35.426z"/>
		<path style="clip-path:url(#SVGID_00000021841115174779691610000009249230790638988970_);fill:#929292;" d="M7.52-35.428
			c0.011,0.687,4.049,1.162,9.02,1.063c4.971-0.1,8.991-0.737,8.98-1.424c-0.012-0.687-4.05-1.162-9.02-1.063
			C11.53-36.752,7.509-36.115,7.52-35.428z"/>
		<path style="clip-path:url(#SVGID_00000021841115174779691610000009249230790638988970_);fill:#919191;" d="M7.651-35.429
			c0.011,0.68,4.008,1.15,8.929,1.052c4.92-0.099,8.899-0.729,8.889-1.409c-0.011-0.68-4.008-1.15-8.929-1.052
			C11.62-36.74,7.64-36.109,7.651-35.429z"/>
		<path style="clip-path:url(#SVGID_00000021841115174779691610000009249230790638988970_);fill:#8F8F8F;" d="M7.781-35.431
			c0.011,0.673,3.967,1.139,8.837,1.041c4.87-0.097,8.809-0.722,8.798-1.395c-0.011-0.673-3.968-1.139-8.837-1.041
			C11.709-36.729,7.77-36.104,7.781-35.431z"/>
		<path style="clip-path:url(#SVGID_00000021841115174779691610000009249230790638988970_);fill:#8E8E8E;" d="M7.911-35.433
			c0.011,0.666,3.926,1.128,8.746,1.031c4.819-0.097,8.717-0.715,8.707-1.381c-0.011-0.666-3.926-1.128-8.746-1.031
			C11.799-36.717,7.9-36.099,7.911-35.433z"/>
		<path style="clip-path:url(#SVGID_00000021841115174779691610000009249230790638988970_);fill:#8D8D8D;" d="M8.041-35.434
			c0.011,0.659,3.885,1.116,8.654,1.021c4.77-0.096,8.627-0.708,8.616-1.366c-0.011-0.659-3.886-1.116-8.654-1.021
			C11.889-36.705,8.031-36.092,8.041-35.434z"/>
		<path style="clip-path:url(#SVGID_00000021841115174779691610000009249230790638988970_);fill:#8B8B8B;" d="M8.172-35.436
			c0.01,0.652,3.844,1.105,8.563,1.01c4.719-0.095,8.535-0.7,8.524-1.352c-0.01-0.652-3.844-1.104-8.562-1.01
			C11.978-36.693,8.162-36.087,8.172-35.436z"/>
		<path style="clip-path:url(#SVGID_00000021841115174779691610000009249230790638988970_);fill:#8A8A8A;" d="M8.302-35.437
			c0.01,0.644,3.803,1.092,8.471,0.998c4.668-0.094,8.445-0.692,8.434-1.338c-0.011-0.645-3.803-1.092-8.471-0.998
			C12.068-36.681,8.292-36.083,8.302-35.437z"/>
		<path style="clip-path:url(#SVGID_00000021841115174779691610000009249230790638988970_);fill:#888888;" d="M8.433-35.438
			c0.01,0.638,3.762,1.08,8.38,0.987c4.618-0.093,8.353-0.685,8.343-1.323c-0.011-0.638-3.763-1.08-8.38-0.987
			C12.157-36.668,8.422-36.077,8.433-35.438z"/>
		<path style="clip-path:url(#SVGID_00000021841115174779691610000009249230790638988970_);fill:#878787;" d="M8.562-35.44
			c0.01,0.631,3.721,1.068,8.289,0.977c4.567-0.092,8.262-0.678,8.252-1.309c-0.01-0.631-3.721-1.068-8.289-0.977
			C12.247-36.657,8.553-36.071,8.562-35.44z"/>
		<path style="clip-path:url(#SVGID_00000021841115174779691610000009249230790638988970_);fill:#868686;" d="M8.693-35.442
			c0.01,0.624,3.68,1.057,8.197,0.966c4.518-0.091,8.171-0.67,8.161-1.294c-0.01-0.624-3.681-1.057-8.197-0.966
			C12.337-36.645,8.683-36.066,8.693-35.442z"/>
		<path style="clip-path:url(#SVGID_00000021841115174779691610000009249230790638988970_);fill:#848484;" d="M8.823-35.443
			c0.01,0.617,3.639,1.045,8.106,0.955c4.467-0.089,8.08-0.662,8.069-1.279c-0.01-0.617-3.639-1.045-8.106-0.955
			C12.426-36.633,8.813-36.06,8.823-35.443z"/>
		<path style="clip-path:url(#SVGID_00000021841115174779691610000009249230790638988970_);fill:#838383;" d="M8.954-35.445
			c0.01,0.61,3.598,1.033,8.014,0.944c4.416-0.088,7.989-0.654,7.979-1.265c-0.01-0.61-3.598-1.033-8.014-0.944
			C12.516-36.622,8.944-36.055,8.954-35.445z"/>
		<path style="clip-path:url(#SVGID_00000021841115174779691610000009249230790638988970_);fill:#818181;" d="M9.084-35.447
			c0.01,0.604,3.557,1.021,7.923,0.934c4.366-0.087,7.898-0.647,7.888-1.25c-0.01-0.604-3.558-1.021-7.923-0.934
			C12.605-36.61,9.074-36.049,9.084-35.447z"/>
		<path style="clip-path:url(#SVGID_00000021841115174779691610000009249230790638988970_);fill:#808080;" d="M9.214-35.448
			c0.009,0.597,3.516,1.01,7.831,0.924c4.316-0.087,7.806-0.641,7.796-1.236c-0.01-0.597-3.516-1.01-7.831-0.924
			C12.695-36.597,9.205-36.043,9.214-35.448z"/>
		<path style="clip-path:url(#SVGID_00000021841115174779691610000009249230790638988970_);fill:#7E7E7E;" d="M9.344-35.449
			c0.01,0.589,3.475,0.997,7.74,0.912c4.266-0.086,7.716-0.633,7.706-1.223c-0.01-0.589-3.475-0.997-7.74-0.912
			C12.785-36.585,9.335-36.039,9.344-35.449z"/>
		<path style="clip-path:url(#SVGID_00000021841115174779691610000009249230790638988970_);fill:#7D7D7D;" d="M9.475-35.451
			c0.009,0.582,3.434,0.985,7.649,0.901c4.215-0.085,7.624-0.625,7.614-1.208c-0.009-0.582-3.434-0.985-7.648-0.901
			C12.874-36.574,9.465-36.034,9.475-35.451z"/>
		<path style="clip-path:url(#SVGID_00000021841115174779691610000009249230790638988970_);fill:#7C7C7C;" d="M9.605-35.452
			c0.009,0.575,3.393,0.974,7.557,0.891c4.165-0.084,7.533-0.618,7.524-1.193c-0.009-0.575-3.393-0.974-7.557-0.891
			C12.964-36.561,9.596-36.027,9.605-35.452z"/>
		<path style="clip-path:url(#SVGID_00000021841115174779691610000009249230790638988970_);fill:#7A7A7A;" d="M9.735-35.454
			c0.009,0.568,3.352,0.962,7.466,0.88c4.114-0.083,7.442-0.61,7.433-1.179c-0.01-0.568-3.352-0.962-7.466-0.88
			C13.054-36.549,9.726-36.022,9.735-35.454z"/>
		<path style="clip-path:url(#SVGID_00000021841115174779691610000009249230790638988970_);fill:#797979;" d="M9.866-35.456
			c0.009,0.561,3.31,0.95,7.374,0.869c4.064-0.081,7.351-0.603,7.342-1.164c-0.009-0.562-3.311-0.95-7.374-0.869
			C13.144-36.539,9.856-36.017,9.866-35.456z"/>
		<path style="clip-path:url(#SVGID_00000021841115174779691610000009249230790638988970_);fill:#777777;" d="M9.996-35.457
			c0.009,0.555,3.27,0.938,7.283,0.858c4.014-0.08,7.26-0.595,7.251-1.149c-0.009-0.555-3.269-0.939-7.283-0.858
			C13.233-36.526,9.987-36.011,9.996-35.457z"/>
		<path style="clip-path:url(#SVGID_00000021841115174779691610000009249230790638988970_);fill:#767676;" d="M10.126-35.458
			c0.009,0.548,3.229,0.928,7.192,0.848c3.963-0.079,7.168-0.588,7.159-1.135c-0.009-0.548-3.228-0.928-7.191-0.848
			C13.323-36.514,10.117-36.005,10.126-35.458z"/>
		<path style="clip-path:url(#SVGID_00000021841115174779691610000009249230790638988970_);fill:#747474;" d="M10.256-35.46
			c0.009,0.541,3.188,0.916,7.1,0.837c3.913-0.078,7.078-0.58,7.069-1.12c-0.009-0.541-3.188-0.916-7.1-0.837
			C13.413-36.502,10.248-36,10.256-35.46z"/>
		<path style="clip-path:url(#SVGID_00000021841115174779691610000009249230790638988970_);fill:#737373;" d="M10.387-35.46
			c0.008,0.533,3.146,0.903,7.009,0.825c3.862-0.077,6.986-0.572,6.978-1.106c-0.009-0.533-3.147-0.903-7.009-0.825
			C13.502-36.49,10.378-35.995,10.387-35.46z"/>
		<path style="clip-path:url(#SVGID_00000021841115174779691610000009249230790638988970_);fill:#717171;" d="M10.517-35.462
			c0.008,0.526,3.106,0.892,6.917,0.814c3.813-0.076,6.896-0.564,6.887-1.092c-0.009-0.526-3.105-0.892-6.917-0.814
			C13.592-36.478,10.508-35.99,10.517-35.462z"/>
		<path style="clip-path:url(#SVGID_00000021841115174779691610000009249230790638988970_);fill:#707070;" d="M10.647-35.464
			c0.008,0.52,3.064,0.88,6.826,0.805c3.762-0.076,6.804-0.559,6.796-1.078c-0.009-0.52-3.064-0.88-6.826-0.805
			C13.682-36.466,10.639-35.984,10.647-35.464z"/>
		<path style="clip-path:url(#SVGID_00000021841115174779691610000009249230790638988970_);fill:#6E6E6E;" d="M10.777-35.465
			c0.008,0.513,3.023,0.868,6.735,0.794c3.711-0.075,6.713-0.551,6.704-1.063c-0.008-0.513-3.023-0.868-6.734-0.794
			C13.771-36.454,10.769-35.978,10.777-35.465z"/>
		<path style="clip-path:url(#SVGID_00000021841115174779691610000009249230790638988970_);fill:#6C6C6C;" d="M10.908-35.467
			c0.008,0.506,2.982,0.856,6.643,0.783c3.661-0.073,6.622-0.543,6.614-1.049c-0.008-0.506-2.982-0.856-6.643-0.783
			C13.861-36.443,10.9-35.973,10.908-35.467z"/>
		<path style="clip-path:url(#SVGID_00000021841115174779691610000009249230790638988970_);fill:#6B6B6B;" d="M11.038-35.469
			c0.008,0.499,2.941,0.845,6.552,0.773c3.61-0.072,6.531-0.535,6.522-1.034c-0.008-0.499-2.94-0.845-6.551-0.772
			C13.95-36.431,11.03-35.968,11.038-35.469z"/>
		<path style="clip-path:url(#SVGID_00000021841115174779691610000009249230790638988970_);fill:#696969;" d="M11.168-35.47
			c0.008,0.492,2.9,0.833,6.46,0.762c3.56-0.071,6.439-0.528,6.432-1.02c-0.008-0.492-2.9-0.833-6.46-0.762
			C14.04-36.418,11.161-35.961,11.168-35.47z"/>
		<path style="clip-path:url(#SVGID_00000021841115174779691610000009249230790638988970_);fill:#686868;" d="M11.299-35.472
			c0.008,0.485,2.859,0.821,6.369,0.751c3.51-0.07,6.349-0.521,6.341-1.005c-0.008-0.485-2.859-0.821-6.369-0.751
			C14.129-36.407,11.291-35.957,11.299-35.472z"/>
		<path style="clip-path:url(#SVGID_00000021841115174779691610000009249230790638988970_);fill:#666666;" d="M11.429-35.473
			c0.008,0.478,2.818,0.809,6.277,0.739c3.46-0.069,6.257-0.513,6.25-0.991c-0.008-0.478-2.818-0.809-6.277-0.739
			C14.219-36.395,11.421-35.952,11.429-35.473z"/>
		<path style="clip-path:url(#SVGID_00000021841115174779691610000009249230790638988970_);fill:#656565;" d="M11.559-35.474
			c0.008,0.471,2.777,0.797,6.186,0.729c3.409-0.068,6.167-0.505,6.159-0.977c-0.008-0.471-2.777-0.797-6.186-0.729
			C14.309-36.382,11.552-35.946,11.559-35.474z"/>
		<path style="clip-path:url(#SVGID_00000021841115174779691610000009249230790638988970_);fill:#636363;" d="M11.689-35.476
			c0.007,0.464,2.736,0.785,6.095,0.718c3.358-0.067,6.075-0.498,6.067-0.962c-0.007-0.464-2.735-0.785-6.094-0.718
			C14.398-36.371,11.682-35.94,11.689-35.476z"/>
		<path style="clip-path:url(#SVGID_00000021841115174779691610000009249230790638988970_);fill:#616161;" d="M11.82-35.478
			c0.007,0.457,2.695,0.774,6.003,0.707c3.309-0.066,5.984-0.49,5.977-0.947c-0.007-0.457-2.695-0.773-6.003-0.707
			C14.488-36.359,11.812-35.935,11.82-35.478z"/>
		<path style="clip-path:url(#SVGID_00000021841115174779691610000009249230790638988970_);fill:#606060;" d="M11.95-35.479
			c0.007,0.45,2.654,0.762,5.912,0.697c3.258-0.065,5.892-0.483,5.886-0.934c-0.008-0.45-2.654-0.762-5.912-0.697
			C14.578-36.347,11.943-35.929,11.95-35.479z"/>
		<path style="clip-path:url(#SVGID_00000021841115174779691610000009249230790638988970_);fill:#5E5E5E;" d="M12.081-35.481
			c0.007,0.443,2.613,0.75,5.82,0.687c3.207-0.064,5.802-0.476,5.794-0.919c-0.007-0.443-2.612-0.75-5.82-0.687
			C14.667-36.335,12.073-35.924,12.081-35.481z"/>
		<path style="clip-path:url(#SVGID_00000021841115174779691610000009249230790638988970_);fill:#5D5D5D;" d="M12.21-35.483
			c0.007,0.437,2.572,0.739,5.729,0.676c3.157-0.063,5.71-0.469,5.704-0.904c-0.007-0.437-2.572-0.739-5.729-0.676
			C14.757-36.324,12.204-35.918,12.21-35.483z"/>
		<path style="clip-path:url(#SVGID_00000021841115174779691610000009249230790638988970_);fill:#5B5B5B;" d="M12.341-35.484
			c0.007,0.43,2.531,0.728,5.638,0.665c3.106-0.063,5.619-0.461,5.612-0.89c-0.007-0.43-2.53-0.728-5.637-0.665
			C14.847-36.311,12.334-35.913,12.341-35.484z"/>
		<path style="clip-path:url(#SVGID_00000021841115174779691610000009249230790638988970_);fill:#595959;" d="M12.471-35.485
			c0.007,0.422,2.49,0.715,5.546,0.653c3.057-0.062,5.528-0.453,5.521-0.876c-0.007-0.422-2.49-0.715-5.546-0.653
			C14.937-36.299,12.464-35.908,12.471-35.485z"/>
		<path style="clip-path:url(#SVGID_00000021841115174779691610000009249230790638988970_);fill:#585858;" d="M12.602-35.487
			c0.006,0.415,2.449,0.703,5.455,0.643c3.006-0.06,5.436-0.445,5.431-0.861c-0.007-0.415-2.449-0.703-5.455-0.643
			C15.026-36.288,12.595-35.903,12.602-35.487z"/>
		<path style="clip-path:url(#SVGID_00000021841115174779691610000009249230790638988970_);fill:#565656;" d="M12.732-35.488
			c0.006,0.408,2.408,0.691,5.363,0.632c2.955-0.06,5.346-0.438,5.339-0.847c-0.007-0.408-2.407-0.691-5.363-0.632
			C15.116-36.275,12.725-35.896,12.732-35.488z"/>
		<path style="clip-path:url(#SVGID_00000021841115174779691610000009249230790638988970_);fill:#545454;" d="M12.862-35.49
			c0.007,0.401,2.367,0.68,5.272,0.621c2.905-0.058,5.254-0.431,5.249-0.832c-0.007-0.401-2.367-0.68-5.272-0.621
			C15.206-36.264,12.855-35.891,12.862-35.49z"/>
		<path style="clip-path:url(#SVGID_00000021841115174779691610000009249230790638988970_);fill:#535353;" d="M12.992-35.492
			c0.006,0.395,2.326,0.668,5.181,0.61c2.854-0.057,5.164-0.423,5.157-0.817c-0.006-0.394-2.325-0.668-5.18-0.61
			C15.295-36.252,12.986-35.886,12.992-35.492z"/>
		<path style="clip-path:url(#SVGID_00000021841115174779691610000009249230790638988970_);fill:#515151;" d="M13.123-35.494
			c0.006,0.388,2.285,0.656,5.089,0.6c2.805-0.056,5.072-0.416,5.066-0.803c-0.006-0.388-2.284-0.656-5.089-0.6
			C15.385-36.241,13.116-35.88,13.123-35.494z"/>
		<path style="clip-path:url(#SVGID_00000021841115174779691610000009249230790638988970_);fill:#4F4F4F;" d="M13.253-35.495
			c0.006,0.381,2.244,0.645,4.998,0.589c2.754-0.055,4.981-0.408,4.976-0.788c-0.007-0.381-2.244-0.645-4.998-0.589
			C15.474-36.228,13.247-35.874,13.253-35.495z"/>
		<path style="clip-path:url(#SVGID_00000021841115174779691610000009249230790638988970_);fill:#4E4E4E;" d="M13.383-35.497
			c0.006,0.374,2.202,0.633,4.906,0.579c2.704-0.055,4.89-0.401,4.884-0.774c-0.006-0.374-2.202-0.633-4.906-0.579
			C15.564-36.216,13.377-35.87,13.383-35.497z"/>
		<path style="clip-path:url(#SVGID_00000021841115174779691610000009249230790638988970_);fill:#4C4C4C;" d="M13.514-35.498
			c0.006,0.366,2.161,0.62,4.814,0.567c2.653-0.054,4.799-0.394,4.793-0.761c-0.006-0.366-2.162-0.62-4.815-0.567
			C15.654-36.205,13.507-35.865,13.514-35.498z"/>
		<path style="clip-path:url(#SVGID_00000021841115174779691610000009249230790638988970_);fill:#4A4A4A;" d="M13.644-35.499
			c0.006,0.359,2.121,0.608,4.723,0.557c2.603-0.053,4.708-0.387,4.702-0.746c-0.006-0.359-2.12-0.608-4.723-0.557
			C15.743-36.192,13.638-35.858,13.644-35.499z"/>
		<path style="clip-path:url(#SVGID_00000021841115174779691610000009249230790638988970_);fill:#494949;" d="M13.774-35.5
			c0.006,0.352,2.08,0.597,4.632,0.546c2.553-0.052,4.617-0.379,4.611-0.732c-0.006-0.352-2.079-0.597-4.632-0.546
			C15.833-36.18,13.769-35.853,13.774-35.5z"/>
		<path style="clip-path:url(#SVGID_00000021841115174779691610000009249230790638988970_);fill:#474747;" d="M13.904-35.502
			c0.005,0.346,2.039,0.585,4.541,0.535c2.502-0.05,4.525-0.371,4.52-0.717c-0.005-0.346-2.038-0.585-4.54-0.535
			C15.922-36.169,13.899-35.848,13.904-35.502z"/>
		<path style="clip-path:url(#SVGID_00000021841115174779691610000009249230790638988970_);fill:#454545;" d="M14.035-35.503
			c0.005,0.339,1.997,0.573,4.449,0.525c2.452-0.049,4.435-0.363,4.429-0.702c-0.005-0.339-1.997-0.573-4.449-0.524
			C16.012-36.157,14.029-35.842,14.035-35.503z"/>
		<path style="clip-path:url(#SVGID_00000021841115174779691610000009249230790638988970_);fill:#444444;" d="M14.165-35.505
			c0.005,0.332,1.956,0.562,4.357,0.514c2.401-0.048,4.343-0.356,4.338-0.688c-0.006-0.332-1.957-0.562-4.358-0.514
			C16.102-36.145,14.16-35.836,14.165-35.505z"/>
		<path style="clip-path:url(#SVGID_00000021841115174779691610000009249230790638988970_);fill:#424242;" d="M14.295-35.507
			c0.005,0.325,1.916,0.55,4.266,0.503c2.351-0.047,4.253-0.349,4.247-0.673c-0.005-0.325-1.915-0.55-4.266-0.503
			C16.191-36.133,14.29-35.832,14.295-35.507z"/>
		<path style="clip-path:url(#SVGID_00000021841115174779691610000009249230790638988970_);fill:#404040;" d="M14.425-35.507
			c0.005,0.317,1.874,0.538,4.175,0.491c2.301-0.046,4.161-0.341,4.156-0.659c-0.005-0.317-1.874-0.538-4.175-0.491
			C16.281-36.121,14.42-35.826,14.425-35.507z"/>
		<path style="clip-path:url(#SVGID_00000021841115174779691610000009249230790638988970_);fill:#3E3E3E;" d="M14.556-35.509
			c0.005,0.31,1.833,0.526,4.084,0.48c2.25-0.045,4.07-0.333,4.064-0.645c-0.005-0.311-1.833-0.526-4.083-0.48
			C16.371-36.109,14.551-35.821,14.556-35.509z"/>
		<path style="clip-path:url(#SVGID_00000021841115174779691610000009249230790638988970_);fill:#3D3D3D;" d="M14.686-35.511
			c0.005,0.304,1.792,0.515,3.992,0.47c2.2-0.044,3.979-0.326,3.975-0.63c-0.005-0.304-1.793-0.515-3.992-0.47
			C16.46-36.097,14.681-35.815,14.686-35.511z"/>
		<path style="clip-path:url(#SVGID_00000021841115174779691610000009249230790638988970_);fill:#3B3B3B;" d="M14.816-35.512
			c0.005,0.297,1.751,0.503,3.9,0.46c2.149-0.044,3.888-0.319,3.883-0.616c-0.005-0.297-1.751-0.503-3.9-0.46
			C16.549-36.084,14.811-35.809,14.816-35.512z"/>
		<path style="clip-path:url(#SVGID_00000021841115174779691610000009249230790638988970_);fill:#393939;" d="M14.946-35.514
			c0.004,0.29,1.71,0.491,3.809,0.449c2.099-0.042,3.796-0.312,3.792-0.601c-0.005-0.29-1.71-0.491-3.81-0.449
			C16.639-36.074,14.941-35.804,14.946-35.514z"/>
		<path style="clip-path:url(#SVGID_00000021841115174779691610000009249230790638988970_);fill:#373737;" d="M15.076-35.516
			c0.005,0.283,1.669,0.479,3.717,0.438c2.049-0.041,3.706-0.304,3.701-0.587c-0.004-0.283-1.669-0.48-3.717-0.439
			C16.729-36.062,15.072-35.799,15.076-35.516z"/>
		<path style="clip-path:url(#SVGID_00000021841115174779691610000009249230790638988970_);fill:#363636;" d="M15.207-35.517
			c0.004,0.276,1.628,0.468,3.626,0.428c1.998-0.04,3.614-0.297,3.61-0.572c-0.005-0.276-1.628-0.468-3.626-0.428
			C16.818-36.049,15.202-35.792,15.207-35.517z"/>
		<path style="clip-path:url(#SVGID_00000021841115174779691610000009249230790638988970_);fill:#343434;" d="M15.337-35.519
			c0.004,0.27,1.587,0.456,3.535,0.417c1.948-0.039,3.524-0.289,3.519-0.558c-0.004-0.27-1.586-0.456-3.534-0.417
			C16.908-36.038,15.333-35.788,15.337-35.519z"/>
		<path style="clip-path:url(#SVGID_00000021841115174779691610000009249230790638988970_);fill:#323232;" d="M15.467-35.52
			c0.004,0.262,1.546,0.443,3.443,0.405c1.897-0.038,3.432-0.281,3.428-0.544c-0.004-0.262-1.546-0.443-3.443-0.405
			C16.998-36.026,15.463-35.783,15.467-35.52z"/>
		<path style="clip-path:url(#SVGID_00000021841115174779691610000009249230790638988970_);fill:#303030;" d="M15.598-35.521
			c0.004,0.255,1.504,0.432,3.352,0.394c1.847-0.037,3.341-0.273,3.337-0.529c-0.005-0.255-1.505-0.432-3.353-0.395
			C17.087-36.013,15.593-35.777,15.598-35.521z"/>
		<path style="clip-path:url(#SVGID_00000021841115174779691610000009249230790638988970_);fill:#2E2E2E;" d="M15.728-35.523
			c0.004,0.248,1.464,0.42,3.26,0.384c1.797-0.036,3.25-0.267,3.246-0.515c-0.004-0.248-1.464-0.42-3.26-0.384
			C17.177-36.001,15.724-35.771,15.728-35.523z"/>
		<path style="clip-path:url(#SVGID_00000021841115174779691610000009249230790638988970_);fill:#2C2C2C;" d="M15.858-35.525
			c0.004,0.241,1.423,0.408,3.169,0.373c1.746-0.035,3.159-0.259,3.155-0.5c-0.004-0.241-1.423-0.408-3.169-0.373
			C17.267-35.99,15.854-35.766,15.858-35.525z"/>
		<path style="clip-path:url(#SVGID_00000021841115174779691610000009249230790638988970_);fill:#2B2B2B;" d="M15.988-35.526
			c0.004,0.234,1.382,0.396,3.078,0.362c1.696-0.033,3.067-0.251,3.063-0.485c-0.003-0.234-1.381-0.396-3.077-0.362
			C17.356-35.978,15.984-35.76,15.988-35.526z"/>
		<path style="clip-path:url(#SVGID_00000021841115174779691610000009249230790638988970_);fill:#292929;" d="M16.119-35.528
			c0.003,0.228,1.34,0.385,2.986,0.353c1.646-0.033,2.977-0.244,2.973-0.472c-0.004-0.227-1.341-0.385-2.986-0.352
			C17.446-35.966,16.115-35.755,16.119-35.528z"/>
		<path style="clip-path:url(#SVGID_00000021841115174779691610000009249230790638988970_);fill:#272727;" d="M16.249-35.53
			c0.003,0.221,1.299,0.373,2.895,0.342c1.595-0.032,2.885-0.237,2.882-0.457c-0.004-0.221-1.3-0.373-2.896-0.342
			C17.536-35.955,16.245-35.749,16.249-35.53z"/>
	</g>
</g>
<g>
	
		<linearGradient id="SVGID_00000129195479855356148740000009684908856317334680_" gradientUnits="userSpaceOnUse" x1="-1.2763" y1="-51.5479" x2="31.6324" y2="-51.5479">
		<stop  offset="0" style="stop-color:#61BEFF"/>
		<stop  offset="1" style="stop-color:#0076F1"/>
	</linearGradient>
	<path style="fill:url(#SVGID_00000129195479855356148740000009684908856317334680_);" d="M23.99-66.661
		c-0.163-0.094-0.317-0.172-0.479-0.249h0.007C23.672-66.833,23.835-66.755,23.99-66.661L23.99-66.661z M10.777-63.879
		c-0.566,0.764-1.029,1.613-1.389,2.549c-0.515,1.314-0.764,2.713-0.764,4.207c0,1.494,0.249,2.892,0.764,4.188
		c0.506,1.306,1.218,2.448,2.128,3.417c0.908,0.98,1.999,1.751,3.25,2.318c1.262,0.566,2.634,0.849,4.126,0.849
		c1.201,0,2.352-0.196,3.441-0.565c1.098-0.378,2.084-0.893,2.977-1.571c0.326-0.196,0.601-0.282,0.824-0.239
		c0.214,0.034,0.436,0.196,0.65,0.488l4.677,6.73c0.197,0.412,0.223,0.747,0.077,1.021c-0.146,0.274-0.368,0.506-0.678,0.687
		c-1.716,1.15-3.553,2.043-5.534,2.67c-1.973,0.626-4.058,0.944-6.246,0.944c-1.929,0-3.774-0.241-5.55-0.738
		c-1.776-0.489-3.44-1.193-4.993-2.104c-1.553-0.909-2.96-2-4.23-3.27c-1.27-1.262-2.36-2.671-3.278-4.208
		c-0.909-1.544-1.621-3.21-2.11-4.986c-0.069-0.257-0.138-0.524-0.198-0.781C0.997-57.93,5.218-61.579,10.777-63.879L10.777-63.879z
		"/>
</g>
<radialGradient id="SVGID_00000008110623517601246020000015863221340009449386_" cx="151.7581" cy="185.2583" r="4.4862" fx="150.8563" fy="187.4546" gradientTransform="matrix(-1.0692 -1.1441 2.283 -2.8176 -255.4479 632.2413)" gradientUnits="userSpaceOnUse">
	<stop  offset="0.0504" style="stop-color:#272727"/>
	<stop  offset="0.2171" style="stop-color:#5E5E5E"/>
	<stop  offset="0.4107" style="stop-color:#979797"/>
	<stop  offset="0.59" style="stop-color:#C4C4C4"/>
	<stop  offset="0.7491" style="stop-color:#E4E4E4"/>
	<stop  offset="0.8821" style="stop-color:#F8F8F8"/>
	<stop  offset="0.9726" style="stop-color:#FFFFFF"/>
</radialGradient>
<path style="opacity:0.92;fill:url(#SVGID_00000008110623517601246020000015863221340009449386_);" d="M-0.348-69.883
	c5.68-7.008,12.653-10.295,15.504-7.286c2.888,3.001,0.548,11.196-5.118,18.178C4.279-51.87-2.703-48.561-5.549-51.609
	C-8.429-54.604-6.082-62.804-0.348-69.883z"/>
<linearGradient id="SVGID_00000170269624369499100230000015360095560709869185_" gradientUnits="userSpaceOnUse" x1="-6.4555" y1="-61.3549" x2="31.8158" y2="-61.3549">
	<stop  offset="0" style="stop-color:#C3DB85"/>
	<stop  offset="1" style="stop-color:#89BA37"/>
</linearGradient>
<path style="fill-rule:evenodd;clip-rule:evenodd;fill:url(#SVGID_00000170269624369499100230000015360095560709869185_);" d="
	M-6.33-43.982c-0.729-10.712,1.682-21.228,7.953-27.83c5.851-6.155,15.563-8.447,23.618-5.88c2.06,0.653,3.983,1.58,5.766,2.782
	c0.326,0.189,0.558,0.429,0.712,0.712c0.155,0.284,0.121,0.635-0.086,1.065l-4.872,7.022c-0.224,0.3-0.455,0.472-0.679,0.506
	c-0.232,0.043-0.506-0.051-0.858-0.257C11.052-73.88-3.644-59.364-6.227-44.539C-6.269-44.341-6.303-44.153-6.33-43.982
	L-6.33-43.982z"/>
</svg>
